<svg width="17" height="21" viewBox="0 0 17 21" fill="none" xmlns="http://www.w3.org/2000/svg">
<path d="M10.3068 12.5683C10.9107 12.7295 11.5302 12.5413 11.9372 12.1152L16.2147 7.65941C16.6544 7.20755 16.4442 6.44416 15.8323 6.2808L3.91636 3.09946L3.58945 1.28713L0.956665 0.584229L0.526754 2.19449L2.13702 2.6244L3.40398 9.5092L1.79256 11.1835C0.916776 12.1055 1.33933 13.6242 2.56313 13.951L12.2247 16.5304L12.6546 14.9202L2.99304 12.3407L4.3086 10.9669L10.3068 12.5683ZM4.25133 4.91393L14.0337 7.52564L10.7367 10.958L5.08471 9.44904L4.25133 4.91393ZM2.34817 14.7561C1.46253 14.5196 0.552498 15.0529 0.316047 15.9386C0.0795962 16.8242 0.602704 17.7402 1.48835 17.9766C2.374 18.2131 3.29208 17.6819 3.52853 16.7963C3.76498 15.9106 3.23382 14.9925 2.34817 14.7561ZM10.3995 16.9056C9.51385 16.6692 8.60382 17.2025 8.36737 18.0881C8.13092 18.9738 8.65403 19.8897 9.53968 20.1262C10.4253 20.3626 11.3434 19.8315 11.5799 18.9458C11.8163 18.0602 11.2851 17.1421 10.3995 16.9056Z" fill="white"/>
</svg>
