<svg width="20" height="19" viewBox="0 0 20 19" fill="none" xmlns="http://www.w3.org/2000/svg">
<path d="M9.21252 0.927049C9.51187 0.0057385 10.8153 0.0057404 11.1146 0.927051L12.7455 5.9463C12.8794 6.35833 13.2633 6.63729 13.6965 6.63729H18.9741C19.9428 6.63729 20.3456 7.8769 19.5619 8.4463L15.2922 11.5484C14.9418 11.803 14.7951 12.2544 14.929 12.6664L16.5598 17.6857C16.8592 18.607 15.8047 19.3731 15.021 18.8037L10.7514 15.7016C10.4009 15.447 9.92628 15.447 9.57579 15.7016L5.30616 18.8037C4.52244 19.3731 3.46796 18.607 3.76731 17.6857L5.39817 12.6664C5.53204 12.2544 5.38539 11.803 5.0349 11.5484L0.765265 8.4463C-0.0184491 7.8769 0.384328 6.63729 1.35305 6.63729H6.63061C7.06383 6.63729 7.44779 6.35833 7.58166 5.9463L9.21252 0.927049Z" fill="#E0DEEF"/>
</svg>
